<svg version="1.1" id="Layer_1" xmlns="http://www.w3.org/2000/svg" xmlns:xlink="http://www.w3.org/1999/xlink" x="0px" y="0px"
	 width="100%" viewBox="300 300 430 430" enable-background="new 300 300 430 430" xml:space="preserve">
<path fill="#F59E0B" opacity="1.000000" stroke="none" 
	d="
M618.825806,538.000000 
	C618.846558,509.170776 618.872437,480.841522 618.874329,452.512299 
	C618.874512,450.014648 618.886230,447.497894 618.605164,445.022644 
	C617.333374,433.822784 609.265320,426.562866 597.567139,426.387878 
	C584.904907,426.198456 572.238098,426.303009 559.573242,426.301178 
	C518.745605,426.295258 477.917908,426.298401 437.090240,426.301971 
	C434.424042,426.302216 431.755737,426.274139 429.091949,426.363953 
	C415.030334,426.838013 407.308044,434.734619 407.277863,448.836060 
	C407.222931,474.498993 407.255219,500.162140 407.252747,525.825195 
	C407.249115,563.986511 407.178467,602.148010 407.324768,640.308777 
	C407.344635,645.486816 405.350250,648.329102 400.898254,650.927917 
	C377.017853,664.867859 353.358948,679.186951 329.599457,693.334656 
	C327.079651,694.835083 324.792969,696.924133 321.631012,697.146423 
	C320.034515,695.537537 320.697662,693.605347 320.697021,691.884094 
	C320.655762,581.732666 320.634857,471.581299 320.663239,361.429901 
	C320.669281,337.858032 339.695129,320.246429 365.408264,320.126251 
	C395.736694,319.984528 426.066254,320.080170 456.395325,320.076508 
	C524.552429,320.068298 592.709473,320.060913 660.866577,320.056122 
	C681.526428,320.054657 698.336975,331.714661 703.586060,349.761932 
	C704.796448,353.923248 705.347839,358.197632 705.346985,362.560699 
	C705.326172,472.378693 705.331665,582.196716 705.321655,692.014709 
	C705.321533,693.647339 705.185669,695.280029 705.122314,696.706787 
	C703.239441,697.645630 702.208801,696.535950 701.119873,695.891541 
	C675.171753,680.536255 649.260559,665.118347 623.275818,649.825500 
	C619.081909,647.357300 618.782288,643.555908 618.782410,639.484985 
	C618.783142,610.489075 618.805847,581.493164 618.821045,552.497253 
	C618.823486,547.831482 618.823486,543.165771 618.825806,538.000000 
z"/>
<path fill="#F59E0B" opacity="1.000000" stroke="none" 
	d="
M593.245850,562.000000 
	C593.245544,584.451355 593.245544,606.402771 593.245544,628.092468 
	C590.716797,629.270264 589.506958,627.738403 588.159668,626.950073 
	C575.941040,619.800476 563.785461,612.542725 551.539612,605.440430 
	C548.424316,603.633545 547.261963,601.234741 547.297302,597.674744 
	C547.494141,577.851257 547.756165,558.023865 547.551758,538.202393 
	C547.372375,520.800232 535.743774,506.931580 519.953857,504.449890 
	C501.545197,501.556641 486.198090,510.269867 480.566162,526.722351 
	C478.902649,531.581970 479.167236,536.590454 479.144928,541.565613 
	C479.064880,559.393066 478.992371,577.221863 479.144592,595.048218 
	C479.190338,600.406555 477.556396,603.949829 472.556458,606.695923 
	C461.031311,613.025879 449.873444,620.023987 438.553009,626.728149 
	C437.145172,627.561890 435.817963,628.655334 433.954865,628.609985 
	C432.152252,627.266846 432.871826,625.276672 432.869873,623.571350 
	C432.813293,574.586365 432.787292,525.601257 432.798767,476.616180 
	C432.802521,460.637909 440.355988,452.755463 456.274536,452.698181 
	C494.429108,452.560852 532.584656,452.591187 570.739441,452.699524 
	C585.651733,452.741852 593.164917,460.740479 593.222046,476.525909 
	C593.324585,504.850281 593.247925,533.175293 593.245850,562.000000 
z"/>
</svg>